<?xml version="1.0" standalone="no"?>
<!DOCTYPE svg PUBLIC "-//W3C//DTD SVG 20010904//EN"
 "http://www.w3.org/TR/2001/REC-SVG-20010904/DTD/svg10.dtd">
<svg version="1.0" xmlns="http://www.w3.org/2000/svg"
 width="237.000000pt" height="237.000000pt" viewBox="0 0 237.000000 237.000000"
 preserveAspectRatio="xMidYMid meet">

<g transform="translate(0.000000,237.000000) scale(0.100000,-0.100000)"
fill="#000000" stroke="none">
<path d="M698 2083 c-47 -51 -560 -787 -585 -840 -22 -47 -23 -54 -10 -91 8
-22 146 -227 307 -456 269 -381 297 -417 330 -427 24 -7 113 -10 256 -7 181 4
226 8 262 22 47 20 70 47 220 263 l92 131 -145 202 c-80 110 -148 206 -151
213 -2 8 37 29 109 58 109 44 114 46 126 27 6 -10 22 -23 34 -29 23 -10 23
-11 23 -230 -1 -140 3 -219 9 -219 10 1 249 333 260 362 4 10 -6 34 -24 59
-48 66 -44 72 42 64 93 -8 100 -11 112 -37 6 -12 18 -26 27 -32 39 -24 80 68
46 102 -19 19 -54 14 -70 -10 -14 -21 -18 -22 -64 -11 -27 7 -63 15 -81 18
l-32 6 26 39 c15 24 23 46 19 56 -14 36 -261 372 -270 366 -5 -3 -6 0 -2 6 8
13 -183 292 -243 356 -60 64 -71 66 -349 66 l-248 0 -26 -27z m303 -359 c5 -6
6 -14 2 -18 -4 -4 -8 -21 -9 -39 -1 -18 -6 -52 -12 -77 -8 -31 -8 -58 -1 -85
5 -22 9 -172 9 -334 0 -242 -3 -297 -15 -314 -19 -27 -19 -57 0 -84 12 -18 15
-46 13 -129 l-3 -106 -194 271 c-214 300 -231 329 -231 381 1 51 24 88 235
383 l190 266 3 -51 c2 -29 7 -57 13 -64z m564 -225 c1 -118 -2 -159 -11 -159
-21 0 -64 -60 -64 -90 0 -26 -8 -31 -117 -79 -130 -57 -138 -56 -138 13 0 39
13 61 159 264 88 122 162 219 165 216 3 -3 6 -77 6 -165z"/>
</g>
</svg>
