<svg id="Layer_1" data-name="Layer 1" xmlns="http://www.w3.org/2000/svg" xmlns:xlink="http://www.w3.org/1999/xlink" viewBox="0 0 78.3 66.64">
  <defs>
    <style>
      .cls-1 {
        fill: url(#linear-gradient);
      }

      .cls-2 {
        fill: url(#linear-gradient-2);
      }

      .cls-3 {
        fill: url(#linear-gradient-3);
      }

      .cls-4 {
        fill: #032a3b;
      }

      .cls-10, .cls-4, .cls-6 {
        fill-rule: evenodd;
      }

      .cls-5 {
        mask: url(#mask);
      }

      .cls-6 {
        fill: #00dbdb;
      }

      .cls-7 {
        mask: url(#mask-2);
      }

      .cls-8 {
        mask: url(#mask-3);
      }

      .cls-9 {
        fill: none;
        stroke: #023949;
        stroke-miterlimit: 22.93;
        stroke-width: 0.57px;
      }

      .cls-10 {
        fill: #023949;
      }
    </style>
    <linearGradient id="linear-gradient" x1="-297.64" y1="315.53" x2="-213.83" y2="315.61" gradientTransform="translate(317.62 -272.9)" gradientUnits="userSpaceOnUse">
      <stop offset="0" stop-color="#fff"/>
      <stop offset="0.03" stop-color="#f4f4f4"/>
      <stop offset="0.19" stop-color="#b4b4b4"/>
      <stop offset="0.34" stop-color="#7d7d7d"/>
      <stop offset="0.49" stop-color="#505050"/>
      <stop offset="0.64" stop-color="#2d2d2d"/>
      <stop offset="0.78" stop-color="#141414"/>
      <stop offset="0.9" stop-color="#050505"/>
      <stop offset="1"/>
    </linearGradient>
    <linearGradient id="linear-gradient-2" x1="-324.04" y1="327.16" x2="-208.5" y2="327.16" gradientTransform="translate(341.9 -284.51)" xlink:href="#linear-gradient"/>
    <linearGradient id="linear-gradient-3" x1="-270.51" y1="336.36" x2="-322.2" y2="336.36" gradientTransform="translate(361.47 -293.71)" xlink:href="#linear-gradient"/>
    <mask id="mask" x="16.64" y="0.48" width="48.32" height="65.94" maskUnits="userSpaceOnUse">
      <g transform="translate(-3.37 -9.2)">
        <rect class="cls-1" x="20.01" y="9.68" width="48.32" height="65.94"/>
      </g>
    </mask>
    <mask id="mask-2" x="40.93" y="12.09" width="31.3" height="42.72" maskUnits="userSpaceOnUse">
      <g transform="translate(-3.37 -9.2)">
        <rect class="cls-2" x="44.3" y="21.29" width="31.3" height="42.72"/>
      </g>
    </mask>
    <mask id="mask-3" x="60.49" y="21.3" width="17.81" height="24.31" maskUnits="userSpaceOnUse">
      <g transform="translate(-3.37 -9.2)">
        <rect class="cls-3" x="63.86" y="30.5" width="17.81" height="24.31"/>
      </g>
    </mask>
  </defs>
  <g>
    <path class="cls-4" d="M28.12,75.84h9c9.93,0,8.8.29,14.86-8.33L63.72,50.85c6.14-8.72,6.15-7.94,0-16.66L52,17.53C45.88,8.91,46.9,9.2,37.1,9.2h-9c-2.33,0-2.61.3-4,2.25L5.69,37.63c-3.18,4.74-3.15,5.22.46,10.45,5.46,7.73,12.42,17.62,18.19,25.81,1.3,1.85,1.79,2,3.78,2" transform="translate(-3.37 -9.2)"/>
    <g class="cls-5">
      <path class="cls-6" d="M40.19,12.06,22.12,37.7c-2.95,4.39-2.8,5.6.45,10.3l9.94,14.09L37,68.44l.22.32,3.41,4.82c1.49,2,2.63,2.52,4.77,1.62S48.6,72.3,52,67.51L63.71,50.85c6.15-8.72,6.16-7.94,0-16.66L52,17.53c-2.72-3.85-4-5.92-5.5-7-2.23-1.67-4.68-.59-6.27,1.56" transform="translate(-3.37 -9.2)"/>
    </g>
    <g class="cls-7">
      <path class="cls-6" d="M57.37,22.83,45.66,39.45c-1.82,2.7-1.82,3.7,0,6.4L57.37,62.47c1,1.39,2.62,2.09,4.06,1,2.11-1.57,9.22-12.57,11.18-15.35,4-5.64,4-5.32,0-11-2-2.78-9.07-13.78-11.18-15.35-1.44-1.08-3-.38-4.06,1" transform="translate(-3.37 -9.2)"/>
    </g>
    <g class="cls-8">
      <path class="cls-6" d="M71.3,31.37l-6.67,9.46c-1.08,1.61-1,2.06.17,3.79l6.66,9.43c.54.72,1,.93,1.75.6s1.19-1.07,2.43-2.83L80,45.67c2.27-3.21,2.27-2.92,0-6.14-1.12-1.58-5.16-7.84-6.36-8.73a1.59,1.59,0,0,0-2.31.57" transform="translate(-3.37 -9.2)"/>
    </g>
    <line class="cls-9" x1="39.58" y1="37.12" x2="33.36" y2="46.08"/>
    <path class="cls-10" d="M39.21,24.74c2.19,0,4,2.22,4,5s-1.77,5-4,5-4-2.22-4-5,1.77-5,4-5" transform="translate(-3.37 -9.2)"/>
    <path class="cls-10" d="M36.73,53.56a2.48,2.48,0,0,1,0,4.84,2.48,2.48,0,0,1,0-4.84" transform="translate(-3.37 -9.2)"/>
    <path class="cls-10" d="M43,44.82a1.54,1.54,0,1,1-1.2,1.5,1.38,1.38,0,0,1,1.2-1.5" transform="translate(-3.37 -9.2)"/>
    <path class="cls-10" d="M72.21,41a2.2,2.2,0,1,1-1.72,2.15A2,2,0,0,1,72.21,41" transform="translate(-3.37 -9.2)"/>
    <polyline class="cls-9" points="35.84 20.5 39.58 37.12 53.14 31.42 68.84 33.91"/>
    <path class="cls-10" d="M56.51,37.23c1.49,0,2.7,1.52,2.7,3.39S58,44,56.51,44s-2.7-1.51-2.7-3.38,1.2-3.39,2.7-3.39" transform="translate(-3.37 -9.2)"/>
  </g>
</svg>
